#N canvas 607 175 1020 674 10;
#X obj 44 41 bng 50 250 50 0 empty empty empty 17 7 0 10 -262144 -1
-1;
#X obj 44 260 bng 30 250 50 0 empty empty empty 17 7 0 10 -262144 -1
-1;
#X obj 500 256 bng 30 250 50 0 empty empty empty 17 7 0 10 -262144
-1 -1;
#X msg 233 56 stop;
#X floatatom 360 232 5 0 0 0 - - -;
#N canvas 1310 115 1024 685 Markov_Chords 0;
#X obj 29 10 inlet;
#X floatatom 209 552 5 0 0 0 - - -;
#X text 248 552 chord_number;
#X obj 210 428 f 1;
#X floatatom 244 428 3 0 0 0 - - -;
#N canvas 6 89 1028 729 I 0;
#X obj 107 65 bng 15 250 50 0 empty empty empty 20 8 0 8 -262144 -1
-1;
#X obj 107 90 random 100;
#X obj 338 184 moses 95;
#X obj 107 220 bng 15 250 50 0 empty empty empty 20 8 0 8 -262144 -1
-1;
#X obj 168 221 bng 15 250 50 0 empty empty empty 20 8 0 8 -262144 -1
-1;
#X obj 338 217 bng 15 250 50 0 empty empty empty 20 8 0 8 -262144 -1
-1;
#X obj 383 218 bng 15 250 50 0 empty empty empty 20 8 0 8 -262144 -1
-1;
#X msg 383 240 1;
#X msg 107 242 4;
#X msg 168 243 3;
#X obj 107 34 inlet;
#N canvas 0 50 450 250 (subpatch) 0;
#X coords 0 1 100 -1 190 142 1 0 0;
#X restore 99 124 graph;
#N canvas 0 50 450 250 (subpatch) 0;
#X coords 0 1 100 -1 190 142 1 0 0;
#X restore 322 124 graph;
#X obj 107 343 s chord_state;
#X obj 107 188 moses 35;
#X text 119 133 75% chance to move chord a minor or major 3rd., f
26;
#X obj 168 188 moses 75;
#X text 334 129 20% chance to move chord to the tritone and 5 % chance
repeat the same chord., f 26;
#X msg 338 239 5;
#X connect 0 0 1 0;
#X connect 1 0 14 0;
#X connect 2 0 5 0;
#X connect 2 1 6 0;
#X connect 3 0 8 0;
#X connect 4 0 9 0;
#X connect 5 0 18 0;
#X connect 6 0 7 0;
#X connect 7 0 13 0;
#X connect 8 0 13 0;
#X connect 9 0 13 0;
#X connect 10 0 0 0;
#X connect 14 0 3 0;
#X connect 14 1 16 0;
#X connect 16 0 4 0;
#X connect 16 1 2 0;
#X connect 18 0 13 0;
#X restore 210 490 pd I;
#N canvas 330 182 1180 741 II 0;
#X obj 107 65 bng 15 250 50 0 empty empty empty 20 8 0 8 -262144 -1
-1;
#X obj 107 90 random 100;
#X obj 338 184 moses 95;
#X obj 107 220 bng 15 250 50 0 empty empty empty 20 8 0 8 -262144 -1
-1;
#X obj 338 217 bng 15 250 50 0 empty empty empty 20 8 0 8 -262144 -1
-1;
#X obj 383 218 bng 15 250 50 0 empty empty empty 20 8 0 8 -262144 -1
-1;
#X msg 107 242 4;
#X obj 107 34 inlet;
#N canvas 0 50 450 250 (subpatch) 0;
#X coords 0 1 100 -1 190 142 1 0 0;
#X restore 100 124 graph;
#N canvas 0 50 450 250 (subpatch) 0;
#X coords 0 1 100 -1 190 142 1 0 0;
#X restore 322 124 graph;
#X obj 107 343 s chord_state;
#X text 119 133 75% chance to move chord a minor or major 3rd., f
26;
#X text 334 129 20% chance to move chord to the tritone and 5 % chance
repeat the same chord., f 26;
#X msg 338 239 5;
#X obj 107 188 moses 75;
#X msg 383 240 2;
#X connect 0 0 1 0;
#X connect 1 0 14 0;
#X connect 2 0 4 0;
#X connect 2 1 5 0;
#X connect 3 0 6 0;
#X connect 4 0 13 0;
#X connect 5 0 15 0;
#X connect 6 0 10 0;
#X connect 7 0 0 0;
#X connect 13 0 10 0;
#X connect 14 0 3 0;
#X connect 14 1 2 0;
#X connect 15 0 10 0;
#X restore 256 489 pd II;
#N canvas 305 159 1127 782 III 0;
#X obj 107 65 bng 15 250 50 0 empty empty empty 20 8 0 8 -262144 -1
-1;
#X obj 107 90 random 100;
#X obj 338 184 moses 95;
#X obj 107 220 bng 15 250 50 0 empty empty empty 20 8 0 8 -262144 -1
-1;
#X obj 168 221 bng 15 250 50 0 empty empty empty 20 8 0 8 -262144 -1
-1;
#X obj 338 217 bng 15 250 50 0 empty empty empty 20 8 0 8 -262144 -1
-1;
#X obj 383 218 bng 15 250 50 0 empty empty empty 20 8 0 8 -262144 -1
-1;
#X obj 107 34 inlet;
#N canvas 0 50 450 250 (subpatch) 0;
#X coords 0 1 100 -1 190 142 1 0 0;
#X restore 99 124 graph;
#N canvas 0 50 450 250 (subpatch) 0;
#X coords 0 1 100 -1 190 142 1 0 0;
#X restore 322 124 graph;
#X obj 107 343 s chord_state;
#X obj 107 188 moses 35;
#X obj 168 188 moses 75;
#X text 334 129 20% chance to move chord to the tritone and 5 % chance
repeat the same chord., f 26;
#X msg 338 239 5;
#X msg 107 242 2;
#X msg 168 243 4;
#X text 119 133 75% chance to move chord a minor or major 2nd., f
26;
#X msg 383 240 3;
#X connect 0 0 1 0;
#X connect 1 0 11 0;
#X connect 2 0 5 0;
#X connect 2 1 6 0;
#X connect 3 0 15 0;
#X connect 4 0 16 0;
#X connect 5 0 14 0;
#X connect 6 0 18 0;
#X connect 7 0 0 0;
#X connect 11 0 3 0;
#X connect 11 1 12 0;
#X connect 12 0 4 0;
#X connect 12 1 2 0;
#X connect 14 0 10 0;
#X connect 15 0 10 0;
#X connect 16 0 10 0;
#X connect 18 0 10 0;
#X restore 302 489 pd III;
#N canvas 305 159 1180 741 IV 0;
#X obj 107 65 bng 15 250 50 0 empty empty empty 20 8 0 8 -262144 -1
-1;
#X obj 107 90 random 100;
#X obj 338 184 moses 95;
#X obj 107 220 bng 15 250 50 0 empty empty empty 20 8 0 8 -262144 -1
-1;
#X obj 168 221 bng 15 250 50 0 empty empty empty 20 8 0 8 -262144 -1
-1;
#X obj 338 217 bng 15 250 50 0 empty empty empty 20 8 0 8 -262144 -1
-1;
#X obj 383 218 bng 15 250 50 0 empty empty empty 20 8 0 8 -262144 -1
-1;
#X obj 107 34 inlet;
#N canvas 0 50 450 250 (subpatch) 0;
#X coords 0 1 100 -1 190 142 1 0 0;
#X restore 99 124 graph;
#N canvas 0 50 450 250 (subpatch) 0;
#X coords 0 1 100 -1 190 142 1 0 0;
#X restore 322 124 graph;
#X obj 107 343 s chord_state;
#X obj 107 188 moses 35;
#X text 119 133 75% chance to move chord a minor or major 3rd., f
26;
#X obj 168 188 moses 75;
#X text 334 129 20% chance to move chord to the tritone and 5 % chance
repeat the same chord., f 26;
#X msg 338 239 5;
#X msg 107 242 1;
#X msg 168 243 2;
#X msg 383 240 4;
#X connect 0 0 1 0;
#X connect 1 0 11 0;
#X connect 2 0 5 0;
#X connect 2 1 6 0;
#X connect 3 0 16 0;
#X connect 4 0 17 0;
#X connect 5 0 15 0;
#X connect 6 0 18 0;
#X connect 7 0 0 0;
#X connect 11 0 3 0;
#X connect 11 1 13 0;
#X connect 13 0 4 0;
#X connect 13 1 2 0;
#X connect 15 0 10 0;
#X connect 16 0 10 0;
#X connect 17 0 10 0;
#X connect 18 0 10 0;
#X restore 348 489 pd IV;
#N canvas -42 24 1028 726 V 0;
#X obj 107 65 bng 15 250 50 0 empty empty empty 20 8 0 8 -262144 -1
-1;
#X obj 107 90 random 100;
#X obj 107 228 bng 15 250 50 0 empty empty empty 20 8 0 8 -262144 -1
-1;
#X obj 168 229 bng 15 250 50 0 empty empty empty 20 8 0 8 -262144 -1
-1;
#X obj 213 229 bng 15 250 50 0 empty empty empty 20 8 0 8 -262144 -1
-1;
#X obj 107 34 inlet;
#N canvas 0 50 450 250 (subpatch) 0;
#X coords 0 1 100 -1 198 155 1 0 0;
#X restore 95 120 graph;
#X obj 107 311 s chord_state;
#X obj 107 196 moses 45;
#X msg 107 250 3;
#X obj 168 196 moses 70;
#X msg 168 251 4;
#X msg 213 251 2;
#X text 124 128 45% chance to move chord a minor or major 3rd \, 25%
chance to move to the 4th chord and 30% chance to move to the 2nd chord
, f 26;
#X connect 0 0 1 0;
#X connect 1 0 8 0;
#X connect 2 0 9 0;
#X connect 3 0 11 0;
#X connect 4 0 12 0;
#X connect 5 0 0 0;
#X connect 8 0 2 0;
#X connect 8 1 10 0;
#X connect 9 0 7 0;
#X connect 10 0 3 0;
#X connect 10 1 4 0;
#X connect 11 0 7 0;
#X connect 12 0 7 0;
#X restore 394 489 pd V;
#N canvas 305 159 1180 741 VI 0;
#X obj 54 56 bng 15 250 50 0 empty empty empty 20 8 0 8 -262144 -1
-1;
#X obj 54 208 bng 15 250 50 0 empty empty empty 20 8 0 8 -262144 -1
-1;
#X obj 54 81 random 100;
#X obj 54 176 moses 20;
#X obj 114 176 moses 40;
#X obj 175 176 moses 55;
#X obj 269 178 moses 75;
#X obj 438 177 moses 80;
#X obj 500 177 moses 85;
#X obj 561 177 moses 90;
#X obj 684 178 moses 95;
#X obj 114 208 bng 15 250 50 0 empty empty empty 20 8 0 8 -262144 -1
-1;
#X obj 175 209 bng 15 250 50 0 empty empty empty 20 8 0 8 -262144 -1
-1;
#X obj 269 210 bng 15 250 50 0 empty empty empty 20 8 0 8 -262144 -1
-1;
#X obj 438 211 bng 15 250 50 0 empty empty empty 20 8 0 8 -262144 -1
-1;
#X obj 500 211 bng 15 250 50 0 empty empty empty 20 8 0 8 -262144 -1
-1;
#X obj 561 210 bng 15 250 50 0 empty empty empty 20 8 0 8 -262144 -1
-1;
#X obj 684 211 bng 15 250 50 0 empty empty empty 20 8 0 8 -262144 -1
-1;
#X obj 729 212 bng 15 250 50 0 empty empty empty 20 8 0 8 -262144 -1
-1;
#X msg 438 233 11;
#X msg 500 233 9;
#X msg 561 232 10;
#X obj 54 25 inlet;
#N canvas 0 50 450 250 (subpatch) 0;
#X coords 0 1 100 -1 190 142 1 0 0;
#X restore 48 121 graph;
#N canvas 0 50 450 250 (subpatch) 0;
#X coords 0 1 100 -1 146 143 1 0 0;
#X restore 261 118 graph;
#N canvas 0 50 450 250 (subpatch) 0;
#X coords 0 1 100 -1 219 142 1 0 0;
#X restore 432 118 graph;
#N canvas 0 50 450 250 (subpatch) 0;
#X coords 0 1 100 -1 190 142 1 0 0;
#X restore 668 118 graph;
#X text 443 123 5% chance to play chord of the 5th mode \, chord of
resonance or the dominant chord., f 30;
#X text 66 124 55% chance to move chord a minor or major 3rd., f 26
;
#X text 680 123 5% chance to move chord a minor or major 2nd \, or
to repeat the previous chord., f 26;
#X msg 54 232 8;
#X msg 114 229 4;
#X msg 175 231 3;
#X msg 269 232 1;
#X msg 684 233 7;
#X msg 729 234 6;
#X text 268 123 20% chance to move to the I chord., f 21;
#X obj 54 334 s chord_state;
#X connect 0 0 2 0;
#X connect 1 0 30 0;
#X connect 2 0 3 0;
#X connect 3 0 1 0;
#X connect 3 1 4 0;
#X connect 4 0 11 0;
#X connect 4 1 5 0;
#X connect 5 0 12 0;
#X connect 5 1 6 0;
#X connect 6 0 13 0;
#X connect 6 1 7 0;
#X connect 7 0 14 0;
#X connect 7 1 8 0;
#X connect 8 0 15 0;
#X connect 8 1 9 0;
#X connect 9 0 16 0;
#X connect 9 1 10 0;
#X connect 10 0 17 0;
#X connect 10 1 18 0;
#X connect 11 0 31 0;
#X connect 12 0 32 0;
#X connect 13 0 33 0;
#X connect 14 0 19 0;
#X connect 15 0 20 0;
#X connect 16 0 21 0;
#X connect 17 0 34 0;
#X connect 18 0 35 0;
#X connect 19 0 37 0;
#X connect 20 0 37 0;
#X connect 21 0 37 0;
#X connect 22 0 0 0;
#X connect 30 0 37 0;
#X connect 31 0 37 0;
#X connect 32 0 37 0;
#X connect 33 0 37 0;
#X connect 34 0 37 0;
#X connect 35 0 37 0;
#X restore 441 489 pd VI;
#X obj 225 401 r chord_state;
#X obj 209 522 r chord_state;
#X obj 210 378 bng 15 250 50 0 empty empty empty 17 7 0 10 -262144
-1 -1;
#X floatatom 29 47 5 0 0 0 - - -;
#X obj 29 94 == 1;
#X obj 29 116 sel 1;
#X msg 29 143 1;
#X obj 29 180 s chord_state;
#X obj 164 166 r chords_len;
#X obj 119 207 ==;
#X obj 164 193 - 1;
#X obj 119 232 sel 1;
#X msg 119 256 5;
#X obj 119 282 s chord_state;
#X obj 266 255 r chords_len;
#X obj 210 282 ==;
#X obj 252 312 sel 1;
#X obj 252 362 s chord_state;
#X obj 210 312 sel 0;
#X msg 252 336 1;
#X obj 119 108 sel 0;
#X obj 119 133 zl join;
#X floatatom 158 108 5 0 0 0 - - -;
#X floatatom 119 180 5 0 0 0 - - -;
#X obj 119 155 t l l;
#X obj 29 71 t f f;
#X obj 210 232 sel 0;
#X obj 210 255 zl join;
#X floatatom 256 231 5 0 0 0 - - -;
#X obj 210 454 sel 1 2 3 4 5, f 39;
#X text 278 426 Markov Chain that selects one of five possible chords.
;
#X obj 209 583 outlet;
#X connect 0 0 14 0;
#X connect 1 0 42 0;
#X connect 3 0 40 0;
#X connect 11 0 3 1;
#X connect 11 0 4 0;
#X connect 12 0 1 0;
#X connect 13 0 3 0;
#X connect 14 0 36 0;
#X connect 15 0 16 0;
#X connect 15 0 31 0;
#X connect 16 0 17 0;
#X connect 17 0 18 0;
#X connect 19 0 21 0;
#X connect 20 0 22 0;
#X connect 20 0 37 0;
#X connect 21 0 20 1;
#X connect 22 0 23 0;
#X connect 23 0 24 0;
#X connect 25 0 26 1;
#X connect 26 0 27 0;
#X connect 26 0 29 0;
#X connect 27 0 30 0;
#X connect 29 0 13 0;
#X connect 30 0 28 0;
#X connect 31 0 32 0;
#X connect 32 0 35 0;
#X connect 33 0 32 1;
#X connect 34 0 20 0;
#X connect 35 0 34 0;
#X connect 35 1 39 0;
#X connect 36 0 15 0;
#X connect 36 1 33 0;
#X connect 37 0 38 0;
#X connect 38 0 26 0;
#X connect 39 0 38 1;
#X connect 40 0 5 0;
#X connect 40 1 6 0;
#X connect 40 2 7 0;
#X connect 40 3 8 0;
#X connect 40 4 9 0;
#X connect 40 5 10 0;
#X restore 360 257 pd Markov_Chords;
#X floatatom 360 280 5 0 0 0 - - -;
#X obj 348 375 * 500;
#X floatatom 348 400 5 0 0 0 - - -;
#X obj 298 350 r chords_duration;
#X obj 137 371 * 500;
#X floatatom 137 396 5 0 0 0 - - -;
#X obj 44 421 makenote 80 1000;
#X obj 42 605 noteout, f 21;
#N canvas 793 101 814 688 NRrhythm_Bass 0;
#X obj 61 14 inlet;
#X obj 60 661 outlet;
#X obj 61 105 + 2;
#X floatatom 61 129 5 0 0 0 - - -;
#X obj 61 255 zl rev;
#X obj 61 205 zl slice;
#X obj 61 153 t b f, f 8;
#X obj 61 278 zl join;
#X obj 61 230 t l l, f 7;
#X obj 61 304 zl nth, f 8;
#X obj 186 491 bng 15 250 50 0 empty empty empty 17 7 0 10 -262144
-1 -1;
#X floatatom 186 540 5 0 0 0 - - -;
#X obj 220 491 bng 15 250 50 0 empty empty empty 17 7 0 10 -262144
-1 -1;
#X obj 186 462 metro 500;
#X obj 186 516 counter 0 20;
#X obj 75 437 zl nth;
#X floatatom 91 412 5 0 0 0 - - -;
#X obj 83 518 ==;
#X floatatom 87 487 5 0 0 0 - - -;
#X obj 91 378 counter 1 15;
#X obj 83 543 sel 1;
#X obj 60 597 bng 30 250 50 0 empty empty empty 17 7 0 10 -262144 -1
-1;
#X obj 60 458 t b f;
#X obj 75 574 t b b b;
#X obj 186 439 tgl 15 0 empty empty empty 17 7 0 10 -262144 -1 -1 0
1;
#X obj 60 334 t b l b b b;
#X obj 178 318 zl len;
#X floatatom 178 339 5 0 0 0 - - -;
#X obj 186 384 ==;
#X obj 186 407 sel 1;
#X obj 201 360 + 1;
#X obj 321 421 bng 15 250 50 0 empty empty empty 17 7 0 10 -262144
-1 -1;
#X obj 321 558 bng 15 250 50 0 empty empty empty 17 7 0 10 -262144
-1 -1;
#X obj 321 508 t b f;
#X obj 321 531 delay;
#X obj 321 473 zl nth 1;
#X obj 61 59 bng 15 250 50 0 empty empty empty 17 7 0 10 -262144 -1
-1;
#X msg 228 425 0;
#X obj 228 386 inlet;
#X obj 61 84 random 3;
#X obj 61 179 zl scramble 7 11 13 17 13 11 7;
#X obj 261 317 print NRrhythm_Bass;
#X obj 184 568 s bass_duration;
#X obj 321 447 zl scramble 1000 1500 2000;
#X obj 61 36 delay 2000;
#X connect 0 0 44 0;
#X connect 2 0 3 0;
#X connect 3 0 6 0;
#X connect 4 0 7 0;
#X connect 5 0 8 0;
#X connect 6 0 40 0;
#X connect 6 1 5 1;
#X connect 6 1 9 1;
#X connect 7 0 9 0;
#X connect 8 0 4 0;
#X connect 8 1 7 1;
#X connect 9 1 25 0;
#X connect 9 1 26 0;
#X connect 9 1 41 0;
#X connect 10 0 14 0;
#X connect 11 0 17 0;
#X connect 12 0 14 2;
#X connect 12 0 14 0;
#X connect 13 0 10 0;
#X connect 14 0 11 0;
#X connect 15 0 22 0;
#X connect 16 0 15 1;
#X connect 16 0 28 0;
#X connect 17 0 20 0;
#X connect 18 0 17 1;
#X connect 18 0 42 0;
#X connect 19 0 16 0;
#X connect 20 0 23 0;
#X connect 21 0 1 0;
#X connect 22 0 21 0;
#X connect 22 1 18 0;
#X connect 23 0 15 0;
#X connect 23 1 12 0;
#X connect 23 2 19 0;
#X connect 24 0 13 0;
#X connect 25 0 24 0;
#X connect 25 1 15 0;
#X connect 25 2 19 0;
#X connect 25 3 19 2;
#X connect 25 4 14 2;
#X connect 26 0 27 0;
#X connect 27 0 30 0;
#X connect 28 0 29 0;
#X connect 29 0 24 0;
#X connect 29 0 31 0;
#X connect 30 0 28 1;
#X connect 31 0 43 0;
#X connect 32 0 36 0;
#X connect 33 0 34 0;
#X connect 33 1 34 1;
#X connect 34 0 32 0;
#X connect 35 0 33 0;
#X connect 36 0 39 0;
#X connect 37 0 24 0;
#X connect 38 0 37 0;
#X connect 39 0 2 0;
#X connect 40 0 5 0;
#X connect 43 0 35 0;
#X connect 44 0 36 0;
#X restore 500 204 pd NRrhythm_Bass;
#X obj 593 372 * 500;
#X floatatom 593 397 5 0 0 0 - - -;
#X obj 543 345 r bass_duration;
#N canvas 313 84 1024 685 NRrhythm_Chords 0;
#X obj 61 14 inlet;
#X obj 61 659 outlet;
#X obj 61 83 + 2;
#X floatatom 61 107 5 0 0 0 - - -;
#X obj 61 62 random 6;
#X obj 61 233 zl rev;
#X obj 61 183 zl slice;
#X obj 61 131 t b f, f 8;
#X obj 61 256 zl join;
#X obj 61 208 t l l, f 7;
#X obj 61 282 zl nth, f 8;
#X obj 182 494 bng 15 250 50 0 empty empty empty 17 7 0 10 -262144
-1 -1;
#X floatatom 182 543 5 0 0 0 - - -;
#X obj 216 494 bng 15 250 50 0 empty empty empty 17 7 0 10 -262144
-1 -1;
#X obj 182 465 metro 500;
#X obj 182 519 counter 0 20;
#X obj 76 457 zl nth;
#X floatatom 88 404 5 0 0 0 - - -;
#X obj 84 538 ==;
#X floatatom 88 507 5 0 0 0 - - -;
#X obj 92 376 counter 1 15;
#X obj 84 563 sel 1;
#X obj 61 617 bng 30 250 50 0 empty empty empty 17 7 0 10 -262144 -1
-1;
#X obj 61 478 t b f;
#X obj 76 594 t b b b;
#X obj 182 442 tgl 15 0 empty empty empty 17 7 0 10 -262144 -1 -1 0
1;
#X obj 61 333 t b l b b b;
#X obj 171 322 zl len;
#X floatatom 174 342 5 0 0 0 - - -;
#X obj 182 387 ==;
#X obj 182 410 sel 1;
#X obj 197 363 + 1;
#X obj 289 424 bng 15 250 50 0 empty empty empty 17 7 0 10 -262144
-1 -1;
#X obj 61 37 bng 15 250 50 0 empty empty empty 17 7 0 10 -262144 -1
-1;
#X obj 218 637 outlet;
#X msg 224 428 0;
#X obj 224 389 inlet;
#X obj 88 427 t f f;
#X obj 257 355 s chords_len;
#X obj 61 308 t l l;
#X obj 183 572 s chords_duration;
#X obj 171 295 print NRrhythm_Chords;
#X obj 61 157 zl scramble 3 5 7 11 13 3 7 5 7 5 3;
#X connect 0 0 33 0;
#X connect 2 0 3 0;
#X connect 3 0 7 0;
#X connect 4 0 2 0;
#X connect 5 0 8 0;
#X connect 6 0 9 0;
#X connect 7 0 42 0;
#X connect 7 1 6 1;
#X connect 7 1 10 1;
#X connect 8 0 10 0;
#X connect 9 0 5 0;
#X connect 9 1 8 1;
#X connect 10 1 39 0;
#X connect 10 1 41 0;
#X connect 11 0 15 0;
#X connect 12 0 18 0;
#X connect 13 0 15 2;
#X connect 13 0 15 0;
#X connect 14 0 11 0;
#X connect 15 0 12 0;
#X connect 16 0 23 0;
#X connect 17 0 37 0;
#X connect 18 0 21 0;
#X connect 19 0 18 1;
#X connect 19 0 40 0;
#X connect 20 0 17 0;
#X connect 21 0 24 0;
#X connect 22 0 1 0;
#X connect 23 0 22 0;
#X connect 23 1 19 0;
#X connect 24 0 16 0;
#X connect 24 1 13 0;
#X connect 24 2 20 0;
#X connect 25 0 14 0;
#X connect 26 0 25 0;
#X connect 26 1 16 0;
#X connect 26 2 20 0;
#X connect 26 3 20 2;
#X connect 26 4 15 2;
#X connect 27 0 28 0;
#X connect 28 0 31 0;
#X connect 28 0 38 0;
#X connect 29 0 30 0;
#X connect 30 0 25 0;
#X connect 30 0 32 0;
#X connect 31 0 29 1;
#X connect 32 0 33 0;
#X connect 33 0 4 0;
#X connect 35 0 25 0;
#X connect 36 0 35 0;
#X connect 37 0 16 1;
#X connect 37 0 29 0;
#X connect 37 1 34 0;
#X connect 39 0 26 0;
#X connect 39 1 27 0;
#X connect 42 0 6 0;
#X restore 255 206 pd NRrhythm_Chords;
#N canvas 946 52 814 688 NRrhythm_Melody 0;
#X obj 61 14 inlet;
#X obj 60 661 outlet;
#X obj 61 105 + 2;
#X floatatom 61 129 5 0 0 0 - - -;
#X obj 61 255 zl rev;
#X obj 61 205 zl slice;
#X obj 61 153 t b f, f 8;
#X obj 61 278 zl join;
#X obj 61 230 t l l, f 7;
#X obj 61 304 zl nth, f 8;
#X obj 186 491 bng 15 250 50 0 empty empty empty 17 7 0 10 -262144
-1 -1;
#X floatatom 186 540 5 0 0 0 - - -;
#X obj 220 491 bng 15 250 50 0 empty empty empty 17 7 0 10 -262144
-1 -1;
#X obj 186 462 metro 500;
#X obj 186 516 counter 0 20;
#X obj 75 437 zl nth;
#X floatatom 91 412 5 0 0 0 - - -;
#X obj 83 518 ==;
#X floatatom 87 487 5 0 0 0 - - -;
#X obj 91 378 counter 1 15;
#X obj 83 543 sel 1;
#X obj 60 597 bng 30 250 50 0 empty empty empty 17 7 0 10 -262144 -1
-1;
#X obj 60 458 t b f;
#X obj 75 574 t b b b;
#X obj 186 439 tgl 15 0 empty empty empty 17 7 0 10 -262144 -1 -1 0
1;
#X obj 60 334 t b l b b b;
#X obj 178 318 zl len;
#X floatatom 178 339 5 0 0 0 - - -;
#X obj 186 384 ==;
#X obj 186 407 sel 1;
#X obj 201 360 + 1;
#X obj 321 421 bng 15 250 50 0 empty empty empty 17 7 0 10 -262144
-1 -1;
#X obj 321 558 bng 15 250 50 0 empty empty empty 17 7 0 10 -262144
-1 -1;
#X obj 321 508 t b f;
#X obj 321 531 delay;
#X obj 321 473 zl nth 1;
#X obj 61 59 bng 15 250 50 0 empty empty empty 17 7 0 10 -262144 -1
-1;
#X msg 228 425 0;
#X obj 228 386 inlet;
#X obj 61 36 delay 5000;
#X obj 61 84 random 9;
#X obj 261 317 print NRrhythm_Melody;
#X obj 184 568 s melody_duration;
#X obj 322 447 zl scramble 1500 2000 2500 3000;
#X obj 61 179 zl scramble 2 3 5 3 2 7 2 5 3 2 2 3;
#X connect 0 0 39 0;
#X connect 2 0 3 0;
#X connect 3 0 6 0;
#X connect 4 0 7 0;
#X connect 5 0 8 0;
#X connect 6 0 44 0;
#X connect 6 1 5 1;
#X connect 6 1 9 1;
#X connect 7 0 9 0;
#X connect 8 0 4 0;
#X connect 8 1 7 1;
#X connect 9 1 25 0;
#X connect 9 1 26 0;
#X connect 9 1 41 0;
#X connect 10 0 14 0;
#X connect 11 0 17 0;
#X connect 12 0 14 2;
#X connect 12 0 14 0;
#X connect 13 0 10 0;
#X connect 14 0 11 0;
#X connect 15 0 22 0;
#X connect 16 0 15 1;
#X connect 16 0 28 0;
#X connect 17 0 20 0;
#X connect 18 0 17 1;
#X connect 18 0 42 0;
#X connect 19 0 16 0;
#X connect 20 0 23 0;
#X connect 21 0 1 0;
#X connect 22 0 21 0;
#X connect 22 1 18 0;
#X connect 23 0 15 0;
#X connect 23 1 12 0;
#X connect 23 2 19 0;
#X connect 24 0 13 0;
#X connect 25 0 24 0;
#X connect 25 1 15 0;
#X connect 25 2 19 0;
#X connect 25 3 19 2;
#X connect 25 4 14 2;
#X connect 26 0 27 0;
#X connect 27 0 30 0;
#X connect 28 0 29 0;
#X connect 29 0 24 0;
#X connect 29 0 31 0;
#X connect 30 0 28 1;
#X connect 31 0 43 0;
#X connect 32 0 36 0;
#X connect 33 0 34 0;
#X connect 33 1 34 1;
#X connect 34 0 32 0;
#X connect 35 0 33 0;
#X connect 36 0 40 0;
#X connect 37 0 24 0;
#X connect 38 0 37 0;
#X connect 39 0 36 0;
#X connect 40 0 2 0;
#X connect 43 0 35 0;
#X connect 44 0 5 0;
#X restore 44 203 pd NRrhythm_Melody;
#X obj 63 346 r melody_duration;
#X obj 44 109 s start;
#X obj 44 178 r start;
#X obj 255 179 r start;
#X obj 500 179 r start;
#X obj 233 112 s stop;
#X obj 149 178 r stop;
#X obj 360 180 r stop;
#X obj 593 179 r stop;
#X obj 255 260 bng 30 250 50 0 empty empty empty 17 7 0 10 -262144
-1 -1;
#X obj 397 111 s reset_modulation;
#X obj 397 56 bng 15 250 50 0 empty empty empty 17 7 0 10 -262144 -1
-1;
#X text 98 56 starts playing;
#X text 267 56 stops playing;
#X text 415 55 resets modulation;
#N canvas 241 134 1028 629 melody_notes 0;
#X floatatom 127 127 5 0 0 0 - - -;
#X obj 47 140 random 42;
#X obj 47 171 array get scales 0 1;
#X obj 47 109 bng 15 250 50 0 empty empty empty 17 7 0 10 -262144 -1
-1;
#X obj 47 202 + 72;
#X msg 127 82 0 1 3 6 7 9;
#X obj 47 33 inlet;
#X obj 47 292 outlet;
#X obj 127 59 loadbang;
#X obj 47 255 + 0;
#X obj 62 229 r modulation;
#N canvas 0 22 450 278 (subpatch) 0;
#X array scales 6 float 3;
#A 0 0 1 3 6 7 9;
#X coords 0 128 6 0 200 140 1 0 0;
#X restore 206 172 graph;
#X text 208 80 Messiaen 2nd Mode segmented;
#X obj 127 106 octaver scales 1;
#X connect 0 0 1 1;
#X connect 1 0 2 0;
#X connect 2 0 4 0;
#X connect 3 0 1 0;
#X connect 4 0 9 0;
#X connect 5 0 13 0;
#X connect 6 0 3 0;
#X connect 8 0 5 0;
#X connect 9 0 7 0;
#X connect 10 0 9 1;
#X connect 13 0 0 0;
#X restore 44 312 pd melody_notes;
#N canvas 391 79 1028 729 chords_notes 0;
#X obj 150 459 outlet;
#X obj 165 119 r chord_state;
#X obj 165 145 sel 1 2 3 4 5, f 77;
#X obj 89 296 inlet;
#X obj 89 326 bng 15 250 50 0 empty empty empty 17 7 0 10 -262144 -1
-1;
#X obj 150 353 + 0;
#X floatatom 165 298 5 0 0 0 - - -;
#X msg 165 183 49 54 58 60;
#X msg 256 184 49 51 55 60;
#X msg 348 183 49 52 57 63;
#X msg 440 183 52 54 58 63;
#X msg 532 183 54 55 60 64;
#X obj 150 418 + 0;
#X obj 165 256 unpack f f f f, f 32;
#X obj 213 354 + 0;
#X floatatom 228 299 5 0 0 0 - - -;
#X obj 213 419 + 0;
#X obj 276 354 + 0;
#X floatatom 291 299 5 0 0 0 - - -;
#X obj 276 419 + 0;
#X obj 339 354 + 0;
#X floatatom 354 299 5 0 0 0 - - -;
#X obj 339 419 + 0;
#X obj 532 211 bng 15 250 50 0 empty empty empty 20 8 0 8 -262144 -1
-1;
#X obj 532 236 random 100;
#X obj 532 267 moses 90;
#X obj 532 293 counter 1 2;
#X floatatom 532 318 5 0 0 0 - - -;
#X obj 533 345 sel 1;
#X obj 581 345 sel 2;
#X msg 581 379 0;
#X floatatom 455 391 5 0 0 0 - - -;
#X msg 533 378 7;
#X obj 533 406 s modulation;
#X obj 652 345 loadbang;
#X obj 715 345 r reset_modulation;
#X connect 1 0 2 0;
#X connect 2 0 7 0;
#X connect 2 1 8 0;
#X connect 2 2 9 0;
#X connect 2 3 10 0;
#X connect 2 4 11 0;
#X connect 3 0 4 0;
#X connect 4 0 5 0;
#X connect 4 0 20 0;
#X connect 4 0 17 0;
#X connect 4 0 14 0;
#X connect 5 0 12 0;
#X connect 6 0 5 1;
#X connect 7 0 13 0;
#X connect 8 0 13 0;
#X connect 9 0 13 0;
#X connect 10 0 13 0;
#X connect 11 0 13 0;
#X connect 11 0 23 0;
#X connect 12 0 0 0;
#X connect 13 0 6 0;
#X connect 13 1 15 0;
#X connect 13 2 18 0;
#X connect 13 3 21 0;
#X connect 14 0 16 0;
#X connect 15 0 14 1;
#X connect 16 0 0 0;
#X connect 17 0 19 0;
#X connect 18 0 17 1;
#X connect 19 0 0 0;
#X connect 20 0 22 0;
#X connect 21 0 20 1;
#X connect 22 0 0 0;
#X connect 23 0 24 0;
#X connect 24 0 25 0;
#X connect 25 1 26 0;
#X connect 26 0 27 0;
#X connect 27 0 28 0;
#X connect 27 0 29 0;
#X connect 28 0 32 0;
#X connect 29 0 30 0;
#X connect 30 0 31 0;
#X connect 30 0 33 0;
#X connect 31 0 22 1;
#X connect 31 0 19 1;
#X connect 31 0 16 1;
#X connect 31 0 12 1;
#X connect 32 0 31 0;
#X connect 32 0 33 0;
#X connect 34 0 30 0;
#X connect 35 0 30 0;
#X restore 255 313 pd chords_notes;
#N canvas 277 153 576 451 bass_notes 0;
#X obj 37 93 random 2;
#X msg 37 159 49 37;
#X msg 82 159 42 30;
#X obj 37 190 unpack f f;
#X floatatom 37 219 5 0 0 0 - - -;
#X floatatom 94 220 5 0 0 0 - - -;
#X obj 37 253 + 0;
#X obj 94 255 + 0;
#X obj 37 63 bng 15 250 50 0 empty empty empty 17 7 0 10 -262144 -1
-1;
#X obj 144 220 r modulation;
#X obj 37 127 sel 1;
#X obj 81 127 sel 0;
#X obj 37 292 outlet;
#X obj 37 19 inlet;
#X connect 0 0 10 0;
#X connect 0 0 11 0;
#X connect 1 0 3 0;
#X connect 2 0 3 0;
#X connect 3 0 4 0;
#X connect 3 1 5 0;
#X connect 4 0 6 0;
#X connect 5 0 7 0;
#X connect 6 0 12 0;
#X connect 7 0 12 0;
#X connect 8 0 0 0;
#X connect 9 0 6 1;
#X connect 9 0 7 1;
#X connect 10 0 1 0;
#X connect 11 0 2 0;
#X connect 13 0 8 0;
#X restore 500 305 pd bass_notes;
#X obj 44 451 s notes_1;
#X obj 255 453 s notes_2;
#X obj 500 449 s notes_3;
#X obj 42 531 r notes_1;
#X obj 42 552 r notes_2;
#X obj 42 572 r notes_3;
#X obj 137 451 s vel_1;
#X obj 348 454 s vel_2;
#X obj 593 449 s vel_3;
#X obj 103 531 r vel_1;
#X obj 103 552 r vel_2;
#X obj 103 572 r vel_3;
#X text 700 57 messiaen_ad_infinitum;
#X text 700 94 cyclone library required;
#X obj 500 419 makenote 50 1000;
#X obj 255 423 makenote 40 1000;
#X text 219 536 the Midi data can be sent with a virtual midi port
to an external instrument., f 29;
#X connect 0 0 21 0;
#X connect 1 0 35 0;
#X connect 2 0 37 0;
#X connect 3 0 25 0;
#X connect 4 0 5 0;
#X connect 5 0 6 0;
#X connect 7 0 8 0;
#X connect 8 0 53 2;
#X connect 9 0 7 0;
#X connect 10 0 11 0;
#X connect 11 0 12 2;
#X connect 12 0 38 0;
#X connect 12 1 44 0;
#X connect 14 0 2 0;
#X connect 15 0 16 0;
#X connect 16 0 52 2;
#X connect 17 0 15 0;
#X connect 18 0 29 0;
#X connect 18 1 4 0;
#X connect 19 0 1 0;
#X connect 20 0 10 0;
#X connect 22 0 19 0;
#X connect 23 0 18 0;
#X connect 24 0 14 0;
#X connect 26 0 19 1;
#X connect 27 0 18 1;
#X connect 28 0 14 1;
#X connect 29 0 36 0;
#X connect 31 0 30 0;
#X connect 35 0 12 0;
#X connect 36 0 53 0;
#X connect 37 0 52 0;
#X connect 41 0 13 0;
#X connect 42 0 13 0;
#X connect 43 0 13 0;
#X connect 47 0 13 1;
#X connect 48 0 13 1;
#X connect 49 0 13 1;
#X connect 52 0 40 0;
#X connect 52 1 46 0;
#X connect 53 0 39 0;
#X connect 53 1 45 0;
