#N canvas 0 23 392 478 10;
#X obj 80 217 until;
#X obj 179 282 f;
#X obj 80 241 list;
#X obj 209 281 + 1;
#X obj 80 337 list-math +;
#X floatatom 179 303 5 0 0 0 - - -;
#X obj 179 323 * 12;
#X obj 80 268 t l b;
#X obj 194 259 0;
#X obj 63 35 inlet;
#X obj 258 75 list length;
#X obj 80 168 t f f;
#X obj 243 182 *;
#X msg 243 203 resize \$1;
#X obj 243 224 s \$1;
#X obj 80 382 array set \$1;
#X obj 140 91 loadbang;
#X obj 140 112 \$2;
#X obj 140 133 moses 0;
#X obj 80 147 f 9;
#X obj 114 360 * 7;
#X obj 63 61 t b b b l;
#X obj 61 411 f;
#X obj 61 432 outlet;
#X connect 0 0 2 0;
#X connect 1 0 3 0;
#X connect 1 0 5 0;
#X connect 2 0 7 0;
#X connect 3 0 1 1;
#X connect 4 0 15 0;
#X connect 5 0 6 0;
#X connect 5 0 20 0;
#X connect 6 0 4 1;
#X connect 7 0 4 0;
#X connect 7 1 1 0;
#X connect 8 0 1 1;
#X connect 9 0 21 0;
#X connect 10 0 12 1;
#X connect 10 0 20 1;
#X connect 11 0 0 0;
#X connect 11 1 12 0;
#X connect 12 0 13 0;
#X connect 12 0 22 1;
#X connect 13 0 14 0;
#X connect 16 0 17 0;
#X connect 17 0 18 0;
#X connect 18 1 19 1;
#X connect 19 0 11 0;
#X connect 20 0 15 1;
#X connect 21 0 22 0;
#X connect 21 1 19 0;
#X connect 21 2 8 0;
#X connect 21 3 10 0;
#X connect 21 3 2 1;
#X connect 22 0 23 0;
